<?xml version="1.0" standalone="no"?>
<!DOCTYPE svg PUBLIC "-//W3C//DTD SVG 20010904//EN"
 "http://www.w3.org/TR/2001/REC-SVG-20010904/DTD/svg10.dtd">
<svg version="1.0"
    xmlns="http://www.w3.org/2000/svg" width="36.000000pt" height="36.000000pt" viewBox="0 0 156.000000 31.000000" preserveAspectRatio="xMidYMid meet">
    <metadata>
Created by potrace 1.10, written by Peter Selinger 2001-2011
    </metadata>
    <g transform="translate(0.000000,31.000000) scale(0.100000,-0.100000)" fill="#000000" stroke="none">
        <path d="M10 155 l0 -145 73 0 c84 0 112 12 145 60 20 29 23 45 20 90 -7 97
-62 140 -178 140 l-60 0 0 -145z m150 100 c72 -37 80 -156 15 -199 -12 -8 -48
-16 -81 -17 l-59 -3 -3 117 -3 117 51 0 c28 0 64 -7 80 -15z"/>
        <path d="M290 155 l0 -145 85 0 c69 0 85 3 85 15 0 12 -14 15 -70 15 l-70 0 0
55 0 55 70 0 c56 0 70 3 70 15 0 12 -14 15 -70 15 l-70 0 0 45 0 45 70 0 c56
0 70 3 70 15 0 12 -16 15 -85 15 l-85 0 0 -145z"/>
        <path d="M558 285 c-87 -48 -91 -204 -6 -259 22 -14 68 -20 135 -17 42 1 93
44 76 62 -11 10 -15 10 -25 -4 -7 -9 -26 -21 -41 -27 -91 -33 -177 24 -177
119 0 33 7 49 34 79 32 34 39 37 89 37 44 0 60 -5 80 -24 14 -12 30 -20 36
-16 19 11 12 25 -21 45 -40 24 -139 27 -180 5z"/>
        <path d="M893 233 c-17 -38 -47 -103 -66 -145 -32 -68 -34 -78 -19 -78 12 0
24 16 36 45 l19 45 68 0 67 0 19 -45 c11 -29 24 -45 35 -45 16 0 16 5 -6 52
-58 132 -110 238 -116 238 -3 0 -20 -30 -37 -67z m77 -77 c20 -20 9 -26 -41
-26 -28 0 -49 3 -47 8 2 4 14 30 27 57 l23 50 14 -40 c8 -22 19 -44 24 -49z"/>
        <path d="M1100 155 l0 -145 74 0 c91 0 117 9 147 52 18 25 24 46 24 90 0 100
-58 148 -177 148 l-68 0 0 -145z m159 100 c63 -32 77 -133 26 -184 -20 -20
-38 -27 -90 -31 l-65 -5 0 117 0 118 50 0 c28 0 64 -7 79 -15z"/>
        <path d="M1385 155 l0 -146 85 3 c100 4 111 22 15 26 l-65 3 0 54 0 55 70 0
c56 0 70 3 70 15 0 12 -14 15 -70 15 l-70 0 0 45 0 44 67 3 c42 2 68 8 71 16
3 9 -18 12 -85 12 l-88 0 0 -145z"/>
    </g>
</svg>
